{
	"asset":{
		"generator":"Khronos glTF Blender I/O v4.0.44",
		"version":"2.0"
	},
	"extensionsUsed":[
		"KHR_materials_transmission",
		"KHR_materials_specular",
		"KHR_materials_ior"
	],
	"scene":0,
	"scenes":[
		{
			"name":"Scene",
			"nodes":[
				0
			]
		}
	],
	"nodes":[
		{
			"mesh":0,
			"name":"PDG 1211",
			"rotation":[
				0.7071068286895752,
				0,
				0,
				0.7071068286895752
			],
			"scale":[
				0.10000000149011612,
				0.10000000149011612,
				0.10000000149011612
			]
		}
	],
	"materials":[
		{
			"doubleSided":true,
			"extensions":{
				"KHR_materials_transmission":{
					"transmissionFactor":1
				},
				"KHR_materials_specular":{
					"specularFactor":0.699999988079071
				},
				"KHR_materials_ior":{
					"ior":1.4500000476837158
				}
			},
			"name":"wire_115115115",
			"pbrMetallicRoughness":{
				"baseColorFactor":[
					0.45100000500679016,
					0.45100000500679016,
					0.45100000500679016,
					1
				],
				"metallicFactor":0,
				"roughnessFactor":0.8211145401000977
			}
		}
	],
	"meshes":[
		{
			"name":"PDG 1211",
			"primitives":[
				{
					"attributes":{
						"POSITION":0,
						"NORMAL":1
					},
					"indices":2,
					"material":0
				}
			]
		}
	],
	"accessors":[
		{
			"bufferView":0,
			"componentType":5126,
			"count":28722,
			"max":[
				493.3407897949219,
				71.74980163574219,
				-9.999999747378752e-05
			],
			"min":[
				-493.3406982421875,
				-46.817901611328125,
				-2096.3408203125
			],
			"type":"VEC3"
		},
		{
			"bufferView":1,
			"componentType":5126,
			"count":28722,
			"type":"VEC3"
		},
		{
			"bufferView":2,
			"componentType":5123,
			"count":61272,
			"type":"SCALAR"
		}
	],
	"bufferViews":[
		{
			"buffer":0,
			"byteLength":344664,
			"byteOffset":0,
			"target":34962
		},
		{
			"buffer":0,
			"byteLength":344664,
			"byteOffset":344664,
			"target":34962
		},
		{
			"buffer":0,
			"byteLength":122544,
			"byteOffset":689328,
			"target":34963
		}
	],
	"buffers":[
		{
			"byteLength":811872,
			"uri":"scene.bin"
		}
	]
}
