{
	"asset":{
		"generator":"Khronos glTF Blender I/O v4.0.44",
		"version":"2.0"
	},
	"scene":0,
	"scenes":[
		{
			"name":"Scene",
			"nodes":[
				0,
				1,
				2,
				3
			]
		}
	],
	"nodes":[
		{
			"mesh":0,
			"name":"1",
			"rotation":[
				0.7071068286895752,
				0,
				0,
				0.7071068286895752
			]
		},
		{
			"mesh":1,
			"name":"2",
			"rotation":[
				0.7071068286895752,
				0,
				0,
				0.7071068286895752
			]
		},
		{
			"mesh":2,
			"name":"2.1",
			"rotation":[
				0.7071068286895752,
				0,
				0,
				0.7071068286895752
			]
		},
		{
			"mesh":3,
			"name":"1.1",
			"rotation":[
				0.7071068286895752,
				0,
				0,
				0.7071068286895752
			]
		}
	],
	"materials":[
		{
			"doubleSided":true,
			"name":"\u041c\u0430\u0442\u0435\u0440\u0438\u0430\u043b.001",
			"pbrMetallicRoughness":{
				"baseColorTexture":{
					"index":0
				},
				"metallicFactor":0,
				"roughnessFactor":0.5
			}
		},
		{
			"doubleSided":true,
			"name":"\u041c\u0430\u0442\u0435\u0440\u0438\u0430\u043b.002",
			"pbrMetallicRoughness":{
				"baseColorTexture":{
					"index":1
				},
				"metallicFactor":0,
				"roughnessFactor":0.5
			}
		},
		{
			"doubleSided":true,
			"name":"\u041c\u0430\u0442\u0435\u0440\u0438\u0430\u043b.003",
			"pbrMetallicRoughness":{
				"baseColorTexture":{
					"index":2
				},
				"metallicFactor":0,
				"roughnessFactor":0.5
			}
		},
		{
			"doubleSided":true,
			"name":"\u041c\u0430\u0442\u0435\u0440\u0438\u0430\u043b.004",
			"pbrMetallicRoughness":{
				"baseColorTexture":{
					"index":3
				},
				"metallicFactor":0,
				"roughnessFactor":0.5
			}
		}
	],
	"meshes":[
		{
			"name":"000_Box",
			"primitives":[
				{
					"attributes":{
						"POSITION":0,
						"NORMAL":1,
						"TEXCOORD_0":2
					},
					"indices":3,
					"material":0
				}
			]
		},
		{
			"name":"001_Box_1",
			"primitives":[
				{
					"attributes":{
						"POSITION":4,
						"NORMAL":5,
						"TEXCOORD_0":6
					},
					"indices":7,
					"material":1
				}
			]
		},
		{
			"name":"001_Box_1.002",
			"primitives":[
				{
					"attributes":{
						"POSITION":8,
						"NORMAL":9,
						"TEXCOORD_0":10
					},
					"indices":7,
					"material":2
				}
			]
		},
		{
			"name":"000_Box.002",
			"primitives":[
				{
					"attributes":{
						"POSITION":11,
						"NORMAL":12,
						"TEXCOORD_0":13
					},
					"indices":3,
					"material":3
				}
			]
		}
	],
	"textures":[
		{
			"sampler":0,
			"source":0
		},
		{
			"sampler":0,
			"source":1
		},
		{
			"sampler":0,
			"source":2
		},
		{
			"sampler":0,
			"source":3
		}
	],
	"images":[
		{
			"mimeType":"image/jpeg",
			"name":"\u0448\u0430\u0433\u0440\u0435\u043d\u044c",
			"uri":"%D1%88%D0%B0%D0%B3%D1%80%D0%B5%D0%BD%D1%8C.jpg"
		},
		{
			"mimeType":"image/jpeg",
			"name":"\u0433\u0440\u0443\u043d\u0442\u043e\u0432\u043a\u0430",
			"uri":"%D0%B3%D1%80%D1%83%D0%BD%D1%82%D0%BE%D0%B2%D0%BA%D0%B0.jpg"
		},
		{
			"mimeType":"image/jpeg",
			"name":"\u043a\u0440\u0430\u0441\u043a\u0430",
			"uri":"%D0%BA%D1%80%D0%B0%D1%81%D0%BA%D0%B0.jpg"
		},
		{
			"mimeType":"image/jpeg",
			"name":"\u043a\u0440\u0430\u0441\u043a\u04302",
			"uri":"%D0%BA%D1%80%D0%B0%D1%81%D0%BA%D0%B02.jpg"
		}
	],
	"accessors":[
		{
			"bufferView":0,
			"componentType":5126,
			"count":848,
			"max":[
				116,
				8.5,
				0
			],
			"min":[
				-116,
				-8.5,
				-331
			],
			"type":"VEC3"
		},
		{
			"bufferView":1,
			"componentType":5126,
			"count":848,
			"type":"VEC3"
		},
		{
			"bufferView":2,
			"componentType":5126,
			"count":848,
			"type":"VEC2"
		},
		{
			"bufferView":3,
			"componentType":5123,
			"count":2916,
			"type":"SCALAR"
		},
		{
			"bufferView":4,
			"componentType":5126,
			"count":863,
			"max":[
				116,
				0.5730000138282776,
				0
			],
			"min":[
				-116,
				-16.427000045776367,
				-331
			],
			"type":"VEC3"
		},
		{
			"bufferView":5,
			"componentType":5126,
			"count":863,
			"type":"VEC3"
		},
		{
			"bufferView":6,
			"componentType":5126,
			"count":863,
			"type":"VEC2"
		},
		{
			"bufferView":7,
			"componentType":5123,
			"count":2916,
			"type":"SCALAR"
		},
		{
			"bufferView":8,
			"componentType":5126,
			"count":863,
			"max":[
				116,
				0.5730000138282776,
				0
			],
			"min":[
				-116,
				-16.427000045776367,
				-331
			],
			"type":"VEC3"
		},
		{
			"bufferView":9,
			"componentType":5126,
			"count":863,
			"type":"VEC3"
		},
		{
			"bufferView":10,
			"componentType":5126,
			"count":863,
			"type":"VEC2"
		},
		{
			"bufferView":11,
			"componentType":5126,
			"count":848,
			"max":[
				116,
				8.5,
				0
			],
			"min":[
				-116,
				-8.5,
				-331
			],
			"type":"VEC3"
		},
		{
			"bufferView":12,
			"componentType":5126,
			"count":848,
			"type":"VEC3"
		},
		{
			"bufferView":13,
			"componentType":5126,
			"count":848,
			"type":"VEC2"
		}
	],
	"bufferViews":[
		{
			"buffer":0,
			"byteLength":10176,
			"byteOffset":0,
			"target":34962
		},
		{
			"buffer":0,
			"byteLength":10176,
			"byteOffset":10176,
			"target":34962
		},
		{
			"buffer":0,
			"byteLength":6784,
			"byteOffset":20352,
			"target":34962
		},
		{
			"buffer":0,
			"byteLength":5832,
			"byteOffset":27136,
			"target":34963
		},
		{
			"buffer":0,
			"byteLength":10356,
			"byteOffset":32968,
			"target":34962
		},
		{
			"buffer":0,
			"byteLength":10356,
			"byteOffset":43324,
			"target":34962
		},
		{
			"buffer":0,
			"byteLength":6904,
			"byteOffset":53680,
			"target":34962
		},
		{
			"buffer":0,
			"byteLength":5832,
			"byteOffset":60584,
			"target":34963
		},
		{
			"buffer":0,
			"byteLength":10356,
			"byteOffset":66416,
			"target":34962
		},
		{
			"buffer":0,
			"byteLength":10356,
			"byteOffset":76772,
			"target":34962
		},
		{
			"buffer":0,
			"byteLength":6904,
			"byteOffset":87128,
			"target":34962
		},
		{
			"buffer":0,
			"byteLength":10176,
			"byteOffset":94032,
			"target":34962
		},
		{
			"buffer":0,
			"byteLength":10176,
			"byteOffset":104208,
			"target":34962
		},
		{
			"buffer":0,
			"byteLength":6784,
			"byteOffset":114384,
			"target":34962
		}
	],
	"samplers":[
		{
			"magFilter":9729,
			"minFilter":9987
		}
	],
	"buffers":[
		{
			"byteLength":121168,
			"uri":"scene.bin"
		}
	]
}
